<mxfile host="app.diagrams.net" agent="Mozilla/5.0 (Macintosh; Intel Mac OS X 10_15_7) AppleWebKit/537.36 (KHTML, like Gecko) Chrome/141.0.0.0 Safari/537.36" version="28.2.7">
  <diagram name="第 1 页" id="tYE2JcK6BhcNFt4fIDgA">
    <mxGraphModel dx="1015" dy="1171" grid="1" gridSize="10" guides="1" tooltips="1" connect="1" arrows="1" fold="1" page="1" pageScale="1" pageWidth="827" pageHeight="1169" math="0" shadow="0">
      <root>
        <mxCell id="0" />
        <mxCell id="1" parent="0" />
        <mxCell id="nuRjvhf4OBPJ2CuGYlzG-1" value="Library:&lt;div&gt;---------------------------------------------------------------------------&lt;br&gt;&lt;div&gt;-books: dict&lt;/div&gt;&lt;div&gt;- members: dict&lt;/div&gt;&lt;div&gt;-records: dict&lt;/div&gt;&lt;div&gt;&lt;span style=&quot;background-color: transparent; color: light-dark(rgb(0, 0, 0), rgb(255, 255, 255));&quot;&gt;------------------------------------------------------------------------&lt;/span&gt;&lt;/div&gt;&lt;div&gt;&lt;span style=&quot;background-color: transparent; color: light-dark(rgb(0, 0, 0), rgb(255, 255, 255));&quot;&gt;&amp;nbsp;+ add_book(book)&amp;nbsp;&lt;/span&gt;&lt;/div&gt;&lt;div&gt;&lt;div&gt;+ add_member(member)&lt;/div&gt;&lt;div&gt;+ find_book(id)&lt;/div&gt;&lt;div&gt;+ find_member(id)&lt;/div&gt;&lt;div&gt;&amp;nbsp;+ borrow_book(book_id, member_id, borrow_date)&lt;/div&gt;&lt;div&gt;&amp;nbsp;+ return_book(record_id, return_date)&amp;nbsp; &amp;nbsp;&lt;/div&gt;&lt;/div&gt;&lt;/div&gt;" style="rounded=0;whiteSpace=wrap;html=1;" vertex="1" parent="1">
          <mxGeometry x="260" y="30" width="310" height="170" as="geometry" />
        </mxCell>
        <mxCell id="nuRjvhf4OBPJ2CuGYlzG-2" value="" style="endArrow=none;dashed=1;html=1;rounded=0;entryX=0.5;entryY=1;entryDx=0;entryDy=0;exitX=0.5;exitY=0;exitDx=0;exitDy=0;" edge="1" parent="1" source="nuRjvhf4OBPJ2CuGYlzG-6" target="nuRjvhf4OBPJ2CuGYlzG-1">
          <mxGeometry width="50" height="50" relative="1" as="geometry">
            <mxPoint x="415" y="280" as="sourcePoint" />
            <mxPoint x="450" y="270" as="targetPoint" />
          </mxGeometry>
        </mxCell>
        <mxCell id="nuRjvhf4OBPJ2CuGYlzG-3" value="(compostion)" style="text;html=1;whiteSpace=wrap;strokeColor=none;fillColor=none;align=center;verticalAlign=middle;rounded=0;" vertex="1" parent="1">
          <mxGeometry x="440" y="230" width="60" height="30" as="geometry" />
        </mxCell>
        <mxCell id="nuRjvhf4OBPJ2CuGYlzG-14" style="edgeStyle=orthogonalEdgeStyle;rounded=0;orthogonalLoop=1;jettySize=auto;html=1;exitX=0.5;exitY=1;exitDx=0;exitDy=0;" edge="1" parent="1" source="nuRjvhf4OBPJ2CuGYlzG-4">
          <mxGeometry relative="1" as="geometry">
            <mxPoint x="160.52941176470586" y="550" as="targetPoint" />
          </mxGeometry>
        </mxCell>
        <mxCell id="nuRjvhf4OBPJ2CuGYlzG-4" value="Book&lt;br&gt;&lt;div&gt;------------------------------------------------------&lt;span style=&quot;background-color: transparent; color: light-dark(rgb(0, 0, 0), rgb(255, 255, 255));&quot;&gt;- book_id:str&amp;nbsp;&lt;/span&gt;&lt;div&gt;- name:str&amp;nbsp;&lt;/div&gt;&lt;div&gt;- author:str&amp;nbsp;&lt;/div&gt;&lt;div&gt;- book_type:str&lt;/div&gt;&lt;div&gt;- is_available&lt;/div&gt;&lt;div&gt;&lt;span style=&quot;background-color: transparent; color: light-dark(rgb(0, 0, 0), rgb(255, 255, 255));&quot;&gt;------------------------------------------------------&lt;/span&gt;&lt;span style=&quot;background-color: transparent; color: light-dark(rgb(0, 0, 0), rgb(255, 255, 255));&quot;&gt;+ __str__()&lt;/span&gt;&lt;/div&gt;&lt;/div&gt;" style="rounded=0;whiteSpace=wrap;html=1;" vertex="1" parent="1">
          <mxGeometry x="50" y="320" width="220" height="190" as="geometry" />
        </mxCell>
        <mxCell id="nuRjvhf4OBPJ2CuGYlzG-21" value="" style="edgeStyle=orthogonalEdgeStyle;rounded=0;orthogonalLoop=1;jettySize=auto;html=1;" edge="1" parent="1" source="nuRjvhf4OBPJ2CuGYlzG-6" target="nuRjvhf4OBPJ2CuGYlzG-16">
          <mxGeometry relative="1" as="geometry" />
        </mxCell>
        <mxCell id="nuRjvhf4OBPJ2CuGYlzG-6" value="Member&lt;br&gt;&lt;div&gt;------------------------------------------------------&lt;br&gt;&lt;div&gt;- member_id:str&lt;/div&gt;&lt;div&gt;- name:str&amp;nbsp;&lt;/div&gt;&lt;div&gt;- phone_number&lt;/div&gt;&lt;div&gt;&lt;span style=&quot;background-color: transparent; color: light-dark(rgb(0, 0, 0), rgb(255, 255, 255));&quot;&gt;- balance:float&lt;/span&gt;&lt;/div&gt;&lt;div&gt;- is_vip:bool&lt;/div&gt;&lt;div&gt;&lt;span style=&quot;background-color: transparent; color: light-dark(rgb(0, 0, 0), rgb(255, 255, 255));&quot;&gt;------------------------------------------------------&lt;/span&gt;&lt;/div&gt;&lt;div&gt;&lt;span style=&quot;background-color: transparent; color: light-dark(rgb(0, 0, 0), rgb(255, 255, 255));&quot;&gt;&amp;nbsp;&lt;/span&gt;&lt;span style=&quot;background-color: transparent;&quot;&gt;+ recharge()&amp;nbsp;&lt;/span&gt;&lt;/div&gt;&lt;/div&gt;&lt;div&gt;&lt;span style=&quot;background-color: transparent;&quot;&gt;+ upgrade_to_vip()&lt;/span&gt;&lt;/div&gt;&lt;div&gt;&lt;span style=&quot;background-color: transparent;&quot;&gt;+ get_daily_fee()&lt;/span&gt;&lt;/div&gt;" style="rounded=0;whiteSpace=wrap;html=1;" vertex="1" parent="1">
          <mxGeometry x="305" y="320" width="220" height="190" as="geometry" />
        </mxCell>
        <mxCell id="nuRjvhf4OBPJ2CuGYlzG-7" value="Record&lt;br&gt;&lt;div&gt;------------------------------------------------------&lt;br&gt;&lt;div&gt;&lt;span style=&quot;background-color: transparent;&quot;&gt;- record_id:str&lt;/span&gt;&lt;/div&gt;&lt;div&gt;&lt;span style=&quot;background-color: transparent; color: light-dark(rgb(0, 0, 0), rgb(255, 255, 255));&quot;&gt;-&lt;/span&gt;&lt;span style=&quot;background-color: transparent;&quot;&gt;- borrow_date&lt;/span&gt;&lt;/div&gt;&lt;div&gt;- book_id:str&lt;/div&gt;&lt;div&gt;&lt;span style=&quot;background-color: transparent;&quot;&gt;- member_id:str&lt;/span&gt;&lt;/div&gt;&lt;div&gt;- due_date:datetime&lt;/div&gt;&lt;div&gt;- return_date:Optional[str]&lt;/div&gt;&lt;div&gt;&lt;span style=&quot;background-color: transparent; color: light-dark(rgb(0, 0, 0), rgb(255, 255, 255));&quot;&gt;------------------------------------------------------&lt;/span&gt;&lt;/div&gt;&lt;div&gt;+ is_returned()&lt;/div&gt;&lt;div&gt;+ calc_overdue_days()&lt;/div&gt;&lt;/div&gt;&lt;div&gt;+ calc_total_fee()&lt;/div&gt;" style="rounded=0;whiteSpace=wrap;html=1;" vertex="1" parent="1">
          <mxGeometry x="570" y="320" width="220" height="190" as="geometry" />
        </mxCell>
        <mxCell id="nuRjvhf4OBPJ2CuGYlzG-8" value="" style="endArrow=none;html=1;rounded=0;" edge="1" parent="1">
          <mxGeometry width="50" height="50" relative="1" as="geometry">
            <mxPoint x="160" y="280" as="sourcePoint" />
            <mxPoint x="682.3529411764706" y="280" as="targetPoint" />
            <Array as="points">
              <mxPoint x="270" y="280" />
            </Array>
          </mxGeometry>
        </mxCell>
        <mxCell id="nuRjvhf4OBPJ2CuGYlzG-10" value="" style="endArrow=none;dashed=1;html=1;rounded=0;exitX=0.5;exitY=0;exitDx=0;exitDy=0;" edge="1" parent="1" source="nuRjvhf4OBPJ2CuGYlzG-4">
          <mxGeometry width="50" height="50" relative="1" as="geometry">
            <mxPoint x="150" y="330" as="sourcePoint" />
            <mxPoint x="160" y="280" as="targetPoint" />
          </mxGeometry>
        </mxCell>
        <mxCell id="nuRjvhf4OBPJ2CuGYlzG-13" value="" style="endArrow=none;dashed=1;html=1;rounded=0;exitX=0.5;exitY=0;exitDx=0;exitDy=0;" edge="1" parent="1" source="nuRjvhf4OBPJ2CuGYlzG-7">
          <mxGeometry width="50" height="50" relative="1" as="geometry">
            <mxPoint x="700" y="310" as="sourcePoint" />
            <mxPoint x="680" y="280" as="targetPoint" />
          </mxGeometry>
        </mxCell>
        <mxCell id="nuRjvhf4OBPJ2CuGYlzG-15" value="EBook&lt;br&gt;&lt;div&gt;------------------------------------------------------+&lt;span style=&quot;background-color: transparent; color: light-dark(rgb(0, 0, 0), rgb(255, 255, 255));&quot;&gt;&amp;nbsp;file_size_mb&lt;/span&gt;&lt;div&gt;&lt;span style=&quot;background-color: transparent; color: light-dark(rgb(0, 0, 0), rgb(255, 255, 255));&quot;&gt;------------------------------------------------------&lt;/span&gt;&lt;span style=&quot;background-color: transparent; color: light-dark(rgb(0, 0, 0), rgb(255, 255, 255));&quot;&gt;+ __str__()&lt;/span&gt;&lt;/div&gt;&lt;/div&gt;" style="rounded=0;whiteSpace=wrap;html=1;" vertex="1" parent="1">
          <mxGeometry x="50" y="550" width="220" height="120" as="geometry" />
        </mxCell>
        <mxCell id="nuRjvhf4OBPJ2CuGYlzG-16" value="&lt;div&gt;VIPMember&lt;/div&gt;&lt;div&gt;------------------------------------------------------+ vip_level:int&lt;div&gt;&lt;span style=&quot;background-color: transparent; color: light-dark(rgb(0, 0, 0), rgb(255, 255, 255));&quot;&gt;------------------------------------------------------&lt;/span&gt;&lt;span style=&quot;background-color: transparent;&quot;&gt;+ get_discount()&lt;/span&gt;&lt;/div&gt;&lt;/div&gt;&lt;div&gt;&lt;span style=&quot;background-color: transparent;&quot;&gt;+ get_daily_fee()&lt;/span&gt;&lt;/div&gt;" style="rounded=0;whiteSpace=wrap;html=1;" vertex="1" parent="1">
          <mxGeometry x="305" y="550" width="220" height="120" as="geometry" />
        </mxCell>
      </root>
    </mxGraphModel>
  </diagram>
</mxfile>
